<svg xmlns="http://www.w3.org/2000/svg" viewBox="0 0 1000 1000"><g fill="#2fa0ff"><path d="M242.3 990.3c-64.5 0-116.9-51.4-116.9-116V301.9c0-19.4 15.9-35.1 35.2-35.1 19.4 0 35.2 15.7 35.2 35.1v572.4c0 25.8 21 45.5 46.5 45.5h514.3c27 0 48-19.7 48-45.5V301.9c0-19.4 15.1-35.1 34.5-35.1s34.5 15.7 34.5 35.1v572.4c0 64.5-52.5 116-116.9 116H242.3zM954.9 149.2H687.6V44.8c0-19.4-16.3-35-35.6-35H348.1c-19.4 0-35.3 15.7-35.3 35v104.4H45.1C25.7 149.2 10 165 10 184.4c0 19.4 15.7 35.2 35.1 35.2H955c19.4 0 35.1-15.9 35.1-35.2-.1-19.4-15.8-35.2-35.2-35.2zm-337.8 0H383.2V78.7h233.9v70.5z"/><path d="M429.7 745.8V395.4c0-19.4-15.9-35.1-35.2-35.1-19.4 0-35.2 15.7-35.2 35.1v350.4c0 19.4 15.9 35.1 35.2 35.1 19.3-.1 35.2-15.8 35.2-35.1zM639.6 745.8V395.4c0-19.4-15.1-35.1-34.5-35.1s-34.5 15.7-34.5 35.1v350.4c0 19.4 15.1 35.1 34.5 35.1 19.4-.1 34.5-15.8 34.5-35.1z"/></g></svg>